<svg xmlns="http://www.w3.org/2000/svg" xmlns:xlink="http://www.w3.org/1999/xlink" width="1000" zoomAndPan="magnify" viewBox="0 0 750 749.999995" height="1000" preserveAspectRatio="xMidYMid meet" version="1.0"><defs><clipPath id="id1"><path d="M 23.390625 172 L 500 172 L 500 648.996094 L 23.390625 648.996094 Z M 23.390625 172 " clip-rule="nonzero"/></clipPath><clipPath id="id2"><path d="M 600 100.777344 L 726.890625 100.777344 L 726.890625 211 L 600 211 Z M 600 100.777344 " clip-rule="nonzero"/></clipPath></defs><g clip-path="url(#id1)"><path fill="#000000" d="M 301.992188 265.769531 L 221.335938 265.769531 L 221.335938 185.195312 L 301.992188 185.195312 Z M 301.992188 358.402344 L 221.335938 358.402344 L 221.335938 278.058594 L 301.992188 278.058594 Z M 301.992188 543.914062 L 221.335938 543.914062 L 221.335938 463.5625 L 301.992188 463.5625 Z M 301.992188 636.769531 L 221.335938 636.769531 L 221.335938 556.195312 L 301.992188 556.195312 Z M 209.046875 358.402344 L 128.515625 358.402344 L 128.515625 278.058594 L 209.046875 278.058594 Z M 209.046875 451.273438 L 128.515625 451.273438 L 128.515625 370.691406 L 209.046875 370.691406 Z M 209.046875 636.769531 L 128.515625 636.769531 L 128.515625 556.195312 L 209.046875 556.195312 Z M 116.226562 265.769531 L 35.664062 265.769531 L 35.664062 185.195312 L 116.226562 185.195312 Z M 116.226562 358.402344 L 35.664062 358.402344 L 35.664062 278.058594 L 116.226562 278.058594 Z M 116.226562 543.914062 L 35.664062 543.914062 L 35.664062 463.5625 L 116.226562 463.5625 Z M 116.226562 636.769531 L 35.664062 636.769531 L 35.664062 556.195312 L 116.226562 556.195312 Z M 314.289062 185.195312 L 394.804688 185.195312 L 394.804688 265.769531 L 314.289062 265.769531 Z M 487.640625 564.980469 L 487.640625 636.769531 L 407.109375 636.769531 L 407.109375 590.953125 L 365.839844 604.144531 C 362.96875 605.054688 359.960938 605.550781 356.9375 605.558594 C 350.574219 605.582031 344.261719 603.542969 339.140625 599.785156 C 331.46875 594.152344 326.914062 585.117188 326.980469 575.613281 L 327.183594 543.914062 L 314.289062 543.914062 L 314.289062 463.5625 L 327.679688 463.5625 L 327.761719 451.273438 L 314.289062 451.273438 L 314.289062 370.691406 L 380.753906 370.691406 C 388.941406 359.777344 397.835938 347.957031 407.109375 335.589844 L 407.109375 278.058594 L 450.347656 278.058594 C 453.425781 273.953125 456.511719 269.859375 459.574219 265.769531 L 407.109375 265.769531 L 407.109375 185.195312 L 487.640625 185.195312 L 487.640625 228.445312 C 491.847656 222.882812 495.933594 217.417969 499.957031 212.09375 L 499.957031 172.914062 L 23.390625 172.914062 L 23.390625 649.058594 L 499.957031 649.058594 L 499.957031 554.710938 C 496.90625 559.121094 492.675781 562.707031 487.640625 564.980469 " fill-opacity="1" fill-rule="nonzero"/></g><g clip-path="url(#id2)"><path fill="#000000" d="M 719.984375 194.476562 C 731.933594 178.222656 728.136719 154.949219 711.492188 142.730469 L 664.359375 108.125 C 647.746094 95.929688 624.347656 99.246094 612.382812 115.496094 L 600.253906 132.011719 L 707.863281 210.988281 L 719.984375 194.476562 " fill-opacity="1" fill-rule="nonzero"/></g><path fill="#595959" d="M 359.257812 572.445312 L 359.945312 458.808594 L 401.140625 515.460938 L 467.554688 537.808594 L 359.257812 572.445312 " fill-opacity="1" fill-rule="nonzero"/><path fill="#000000" d="M 606.109375 162.960938 L 587.523438 149.335938 L 372.578125 441.660156 L 386.800781 461.234375 L 606.109375 162.960938 " fill-opacity="1" fill-rule="nonzero"/><path fill="#000000" d="M 676.554688 214.660156 L 457.222656 512.933594 L 480.164062 520.644531 L 695.125 228.308594 L 676.554688 214.660156 " fill-opacity="1" fill-rule="nonzero"/><path fill="#000000" d="M 413.746094 498.3125 L 434.855469 505.390625 L 658.417969 201.351562 L 624.253906 176.269531 L 400.683594 480.308594 L 413.746094 498.3125 " fill-opacity="1" fill-rule="nonzero"/></svg>